# xmcd
#
# Track frame offsets:
#	150
#	14932
#	29344
#	47409
#	65385
#	80637
#	100249
#	111267
#	126616
#	143489
#	158070
#	171055
#
# Disc length: 2531 seconds
#
# Revision: 0
# Processed by: cddbd v1.5PL3 Copyright (c) Steve Scherf et al.
# Submitted via: dBpowerAMP V4.0
#
DISCID=a209e10c
DTITLE=Eddie Rabbitt - The Essentials
DYEAR=1900
DGENRE=Country
TTITLE0=Drivin' My Life Away
TTITLE1=I Love A Rainy Night
TTITLE2=Kentucky Rain
TTITLE3=You and I (with Crystal Gayle)
TTITLE4=You Don't Love Me Anymore
TTITLE5=Suspicions
TTITLE6=Drinkin' My Baby (Off My Mind)
TTITLE7=Gone Too Far
TTITLE8=You Can't Run From Love
TTITLE9=The Best Year Of My Life
TTITLE10=Every Which Way But Loose
TTITLE11=I Just Want To Love You
EXTD=
EXTT0=
EXTT1=
EXTT2=
EXTT3=
EXTT4=
EXTT5=
EXTT6=
EXTT7=
EXTT8=
EXTT9=
EXTT10=
EXTT11=
PLAYORDER=
